<svg width="360" height="400" fill="none" xmlns="http://www.w3.org/2000/svg"><path d="M179.592 225.052C63.781 225.052 0 281.851 0 384.989c0 8.055 6.297 14.583 14.067 14.583h331.048c7.77 0 14.068-6.528 14.068-14.583 0-103.132-63.781-159.937-179.591-159.937zM28.646 370.405c5.533-77.114 56.245-116.184 150.946-116.184 94.7 0 145.413 39.07 150.95 116.184H28.646zM179.588 0C126.39 0 86.276 42.421 86.276 98.672c0 57.898 41.859 104.996 93.312 104.996 51.453 0 93.312-47.098 93.312-104.991C272.9 42.42 232.786 0 179.588 0zm0 174.507c-35.942 0-65.178-34.017-65.178-75.83 0-40.278 27.412-69.512 65.178-69.512 37.161 0 65.178 29.88 65.178 69.512 0 41.813-29.236 75.83-65.178 75.83z" fill="#434343"/></svg>