<svg width="389" height="364" fill="none" xmlns="http://www.w3.org/2000/svg"><path d="M109.408 176.42H85.095c-6.294 0-11.396 5.29-11.396 11.816 0 6.525 5.102 11.815 11.396 11.815h24.313c6.294 0 11.396-5.29 11.396-11.815 0-6.526-5.102-11.816-11.396-11.816zM109.408 226.838H85.095c-6.294 0-11.396 5.29-11.396 11.815 0 6.525 5.102 11.816 11.396 11.816h24.313c6.294 0 11.396-5.291 11.396-11.816s-5.102-11.815-11.396-11.815zM109.408 277.234H85.095c-6.294 0-11.396 5.286-11.396 11.805s5.102 11.805 11.396 11.805h24.313c6.294 0 11.396-5.286 11.396-11.805s-5.102-11.805-11.396-11.805zM206.659 176.42h-24.313c-6.294 0-11.396 5.29-11.396 11.816 0 6.525 5.102 11.815 11.396 11.815h24.313c6.294 0 11.396-5.29 11.396-11.815 0-6.526-5.102-11.816-11.396-11.816zM206.659 226.838h-24.313c-6.294 0-11.396 5.29-11.396 11.815 0 6.525 5.102 11.816 11.396 11.816h24.313c6.294 0 11.396-5.291 11.396-11.816s-5.102-11.815-11.396-11.815zM206.659 277.234h-24.313c-6.294 0-11.396 5.286-11.396 11.805s5.102 11.805 11.396 11.805h24.313c6.294 0 11.396-5.286 11.396-11.805s-5.102-11.805-11.396-11.805zM303.902 176.42h-24.313c-6.294 0-11.396 5.29-11.396 11.816 0 6.525 5.102 11.815 11.396 11.815h24.313c6.294 0 11.396-5.29 11.396-11.815 0-6.526-5.102-11.816-11.396-11.816zM303.902 226.838h-24.313c-6.294 0-11.396 5.29-11.396 11.815 0 6.525 5.102 11.816 11.396 11.816h24.313c6.294 0 11.396-5.291 11.396-11.816s-5.102-11.815-11.396-11.815zM303.902 277.234h-24.313c-6.294 0-11.396 5.286-11.396 11.805s5.102 11.805 11.396 11.805h24.313c6.294 0 11.396-5.286 11.396-11.805s-5.102-11.805-11.396-11.805z" fill="#434343"/><path d="M354.811 31.505h-27.352v-19.69C327.459 5.29 322.356 0 316.062 0c-6.293 0-11.396 5.29-11.396 11.814v19.69h-98.77v-19.69C205.896 5.29 200.794 0 194.5 0c-6.294 0-11.396 5.29-11.396 11.814v19.69h-98.77v-19.69C84.334 5.29 79.231 0 72.937 0c-6.293 0-11.396 5.29-11.396 11.814v19.69H34.19C15.337 31.505 0 47.405 0 66.949v261.489c0 19.544 15.337 35.443 34.19 35.443H354.81c18.852 0 34.189-15.899 34.189-35.443V66.947c0-19.543-15.337-35.442-34.189-35.442zM22.793 66.948c0-6.515 5.112-11.815 11.397-11.815H61.54v19.69c0 6.526 5.103 11.815 11.397 11.815 6.293 0 11.396-5.29 11.396-11.814v-19.69h98.77v19.69c0 6.525 5.102 11.814 11.396 11.814 6.294 0 11.396-5.29 11.396-11.814v-19.69h98.77v19.69c0 6.525 5.103 11.814 11.396 11.814 6.294 0 11.397-5.29 11.397-11.814v-19.69h27.352c6.284 0 11.396 5.3 11.396 11.814v46.469H22.793v-46.47zm332.018 273.304H34.19c-6.285 0-11.397-5.3-11.397-11.815V137.046h343.414v191.391c0 6.515-5.112 11.815-11.396 11.815z" fill="#434343"/></svg>