<svg width="512" height="512" viewBox="0 0 512 512" fill="none" xmlns="http://www.w3.org/2000/svg">
<path d="M459.406 132.927L330.873 4.394C328.06 1.581 324.245 0 320.267 0H103.367C72.9479 0 48.2 24.748 48.2 55.167V456.833C48.2 487.252 72.9479 512 103.366 512H408.633C439.052 512 463.8 487.252 463.8 456.833V143.533C463.8 139.555 462.219 135.74 459.406 132.927V132.927ZM335.267 51.213L412.587 128.533H360.433C346.557 128.533 335.267 117.243 335.267 103.367V51.213ZM408.633 482H103.366C89.4899 482 78.1999 470.71 78.1999 456.833V55.167C78.1999 41.29 89.4899 30 103.366 30H305.266V103.367C305.266 133.785 330.014 158.533 360.432 158.533H433.8V456.833C433.8 470.71 422.51 482 408.633 482V482Z" fill="white"/>
<path d="M384.533 417.732H127.467C119.183 417.732 112.467 424.448 112.467 432.732C112.467 441.016 119.183 447.732 127.467 447.732H384.533C392.817 447.732 399.533 441.016 399.533 432.732C399.533 424.448 392.817 417.732 384.533 417.732Z" fill="white"/>
<path d="M384.533 353.467H127.467C119.183 353.467 112.467 360.183 112.467 368.467C112.467 376.751 119.183 383.467 127.467 383.467H384.533C392.817 383.467 399.533 376.751 399.533 368.467C399.533 360.183 392.817 353.467 384.533 353.467Z" fill="white"/>
<path d="M384.533 289.199H127.467C119.183 289.199 112.467 295.915 112.467 304.199C112.467 312.483 119.183 319.199 127.467 319.199H384.533C392.817 319.199 399.533 312.483 399.533 304.199C399.533 295.915 392.817 289.199 384.533 289.199Z" fill="white"/>
<path d="M127.467 254.934H320.267C328.551 254.934 335.267 248.218 335.267 239.934C335.267 231.65 328.551 224.934 320.267 224.934H127.467C119.183 224.934 112.467 231.65 112.467 239.934C112.467 248.218 119.183 254.934 127.467 254.934V254.934Z" fill="white"/>
<path d="M127.467 190.666H223.866C232.15 190.666 238.866 183.95 238.866 175.666V79.267C238.866 70.983 232.15 64.267 223.866 64.267H127.467C119.183 64.267 112.467 70.983 112.467 79.267V175.666C112.467 183.95 119.183 190.666 127.467 190.666V190.666ZM142.467 94.267H208.866V160.666H142.467V94.267Z" fill="white"/>
</svg>
