<svg width="100" height="100" viewBox="0 0 100 100" fill="none" xmlns="http://www.w3.org/2000/svg">
<mask id="mask0" mask-type="alpha" maskUnits="userSpaceOnUse" x="5" y="4" width="89" height="93">
<path d="M93.0485 44.7684L51.6669 4.87988C50.4614 3.70671 48.5387 3.70671 47.3332 4.87988L5.95318 44.7668C5.34399 45.3538 5 46.1627 5 47.008C5 48.7284 6.39701 50.123 8.12007 50.123H13.6192V93.7323C13.6192 95.4527 15.016 96.8472 16.7393 96.8472H38.5798C40.303 96.8472 41.6999 95.4527 41.6999 93.7323V68.8127H57.3002V93.7323C57.3002 95.4527 58.697 96.8472 60.4203 96.8472H82.2608C83.9841 96.8472 85.3809 95.4527 85.3809 93.7323V50.123H90.88C91.7259 50.123 92.5354 49.7801 93.1233 49.1729C94.3209 47.9359 94.2873 45.9639 93.0485 44.7684ZM85.3809 47.008C83.6576 47.008 82.2608 48.4025 82.2608 50.123V93.7323H60.4203V68.8127C60.4203 67.0922 59.0235 65.6977 57.3002 65.6977H41.6999C39.9766 65.6977 38.5798 67.0922 38.5798 68.8127V93.7323H16.7393V50.123C16.7393 48.4025 15.3425 47.008 13.6192 47.008H8.12007L49.5 7.12108L90.8956 47.008H85.3809V47.008Z" fill="black"/>
</mask>
<g mask="url(#mask0)">
<rect x="-11.3948" y="2.22412" width="140.526" height="106.566" fill="#4378FF"/>
</g>
</svg>
