<svg width="513" height="513" viewBox="0 0 513 513" fill="none" xmlns="http://www.w3.org/2000/svg">
<g clip-path="url(#clip0)">
<path d="M509.605 171.075L410.305 71.774C407.112 68.58 401.935 68.58 398.74 71.774L349.09 121.424C347.557 122.957 346.696 125.037 346.696 127.206C346.696 129.375 347.557 131.455 349.09 132.988L354.043 137.941L342.661 149.321C335.272 156.707 323.807 158.723 314.133 154.332C305.063 150.215 294.98 148.04 284.972 148.04C273.089 148.04 261.476 151.023 251.158 156.673C246.855 155.613 242.439 155.07 237.979 155.07C231.529 155.07 225.194 156.183 219.15 158.38C209.499 161.886 199.154 159.713 192.147 152.708L171.71 132.27L174.144 129.836C175.677 128.303 176.538 126.223 176.538 124.054C176.538 121.885 175.677 119.805 174.144 118.272L124.494 68.622C121.299 65.428 116.123 65.428 112.929 68.622L2.39499 179.156C-0.798006 182.35 -0.798006 187.527 2.39499 190.72L52.044 240.37C53.578 241.904 55.657 242.765 57.827 242.765C59.997 242.765 62.075 241.904 63.61 240.37L66.571 237.409L80.985 251.823C84.622 255.46 87.033 260.001 87.956 264.954C92.742 290.637 105.042 313.986 123.526 332.48L126.241 335.195C121.027 340.686 118.159 347.84 118.159 355.44C118.159 363.301 121.221 370.692 126.779 376.251C132.517 381.989 140.052 384.857 147.59 384.857C148.081 384.857 148.57 384.844 149.061 384.819C148.663 392.838 151.519 400.989 157.629 407.101C163.188 412.66 170.579 415.721 178.44 415.721C178.659 415.721 178.877 415.71 179.096 415.705C178.928 423.454 181.787 431.257 187.687 437.158C193.246 442.718 200.637 445.778 208.499 445.778C216.36 445.778 223.75 442.716 229.31 437.158C229.778 436.69 230.219 436.206 230.65 435.716C233.545 436.725 236.607 437.262 239.702 437.262C247.055 437.262 253.963 434.397 259.143 429.2C261.9 426.444 263.992 423.202 265.354 419.671L266.191 420.508C271.55 425.867 278.589 428.547 285.628 428.547C292.667 428.547 299.706 425.867 305.065 420.508C307.913 417.66 310.053 414.297 311.409 410.63C316.206 414.119 321.885 415.866 327.567 415.866C334.606 415.866 341.649 413.187 347.013 407.83C352.204 402.639 355.063 395.733 355.063 388.385C355.063 386.165 354.797 383.988 354.29 381.883C359.527 380.819 364.339 378.248 368.2 374.382C373.391 369.191 376.25 362.288 376.25 354.945C376.25 349.16 374.468 343.653 371.177 339.035L377.737 332.475C396.436 313.767 408.789 290.125 413.462 264.104C414.245 259.747 416.403 255.7 419.705 252.397L444.103 227.999L448.392 232.288C449.989 233.885 452.082 234.683 454.175 234.683C456.267 234.683 458.361 233.885 459.958 232.288L509.608 182.638C511.141 181.105 512.002 179.025 512.002 176.856C512.002 174.687 511.138 172.609 509.605 171.075ZM57.827 223.025L19.741 184.939L118.71 85.97L156.797 124.056L57.827 223.025ZM156.836 364.689C151.739 369.785 143.444 369.787 138.343 364.689C135.873 362.218 134.513 358.935 134.513 355.442C134.513 351.95 135.874 348.666 138.344 346.196C140.893 343.647 144.24 342.372 147.589 342.372C150.937 342.372 154.287 343.647 156.835 346.196C161.933 351.294 161.933 359.59 156.836 364.689ZM187.684 395.537C185.216 398.008 181.933 399.367 178.438 399.367C174.946 399.367 171.662 398.006 169.193 395.537C164.094 390.439 164.094 382.143 169.193 377.044C171.742 374.495 175.089 373.22 178.439 373.22C181.786 373.22 185.136 374.495 187.684 377.044C192.784 382.142 192.784 390.439 187.684 395.537ZM217.742 425.594C215.272 428.064 211.989 429.424 208.497 429.424C205.004 429.424 201.72 428.063 199.251 425.594C194.152 420.496 194.152 412.2 199.251 407.101C201.8 404.552 205.147 403.277 208.497 403.277C211.844 403.277 215.194 404.552 217.742 407.101C222.841 412.2 222.841 420.496 217.742 425.594ZM356.63 362.822C354.528 364.926 351.733 366.085 348.761 366.085C345.789 366.085 342.994 364.926 340.888 362.817L261.558 283.505C258.362 280.312 253.186 280.313 249.993 283.507C246.801 286.7 246.802 291.878 249.995 295.071L335.446 380.513C337.549 382.615 338.706 385.411 338.706 388.385C338.706 391.365 337.548 394.164 335.449 396.263C331.102 400.606 324.033 400.607 319.693 396.266L305.277 381.85C305.197 381.767 305.119 381.683 305.036 381.601C305.012 381.577 304.985 381.556 304.96 381.532L238.693 315.265C235.498 312.072 230.322 312.072 227.128 315.265C223.934 318.458 223.934 323.636 227.128 326.829L293.608 393.308C295.64 395.391 296.759 398.147 296.759 401.071C296.759 404.045 295.6 406.841 293.498 408.943C289.16 413.284 282.097 413.284 277.755 408.943L205.67 336.857C202.475 333.663 197.299 333.663 194.105 336.857C190.911 340.05 190.911 345.228 194.105 348.421L247.539 401.856C247.554 401.871 247.566 401.888 247.582 401.902C249.683 403.999 250.839 406.79 250.839 409.761C250.839 412.734 249.681 415.53 247.57 417.641C245.471 419.745 242.677 420.904 239.7 420.904C238.981 420.904 238.278 420.83 237.59 420.7C238.913 411.787 236.154 402.38 229.308 395.533C223.749 389.975 216.358 386.913 208.497 386.913C208.278 386.913 208.06 386.924 207.841 386.929C208.009 379.18 205.151 371.377 199.25 365.476C193.69 359.918 186.3 356.856 178.438 356.856C177.946 356.856 177.457 356.868 176.969 356.892C177.362 348.878 174.506 340.734 168.399 334.626C160.965 327.193 150.515 324.582 140.955 326.779L135.091 320.915C118.951 304.768 108.213 284.38 104.034 261.955C102.503 253.742 98.532 246.238 92.551 240.256L78.136 225.841L160.146 143.831L180.584 164.269C188.44 172.125 199.136 176.329 210.091 176.329C214.997 176.329 219.958 175.485 224.737 173.748C227.055 172.905 229.452 172.3 231.881 171.916L181.249 222.549C175.054 228.743 171.642 236.979 171.642 245.74C171.642 254.5 175.054 262.736 181.248 268.93C187.642 275.324 196.038 278.52 204.438 278.519C212.836 278.519 221.235 275.321 227.63 268.93L253.06 243.5L259.943 250.388C259.945 250.39 259.946 250.391 259.948 250.393L260.234 250.679L260.509 250.954C260.51 250.955 260.512 250.957 260.514 250.958L260.519 250.963C260.598 251.041 260.675 251.115 260.752 251.189L356.633 347.07C358.736 349.172 359.893 351.968 359.893 354.942C359.893 357.921 358.736 360.717 356.63 362.822ZM408.137 240.834C402.463 246.509 398.737 253.557 397.363 261.215C393.283 283.935 382.496 304.579 366.17 320.913L359.886 327.198L308.155 275.467C309.279 275.55 310.408 275.605 311.545 275.605C316.783 275.605 322.143 274.687 327.479 272.504C331.659 270.794 333.661 266.019 331.951 261.84C330.241 257.661 325.47 255.658 321.287 257.368C300.241 265.979 275.009 242.248 272.2 239.513C272.153 239.467 272.106 239.422 272.058 239.378L271.768 239.088C271.767 239.087 271.766 239.087 271.765 239.086L271.512 238.834C271.511 238.833 271.509 238.831 271.507 238.83L264.623 231.941L272.429 224.134C275.624 220.94 275.624 215.763 272.43 212.569C269.236 209.377 264.059 209.376 260.866 212.569L247.296 226.139C247.291 226.144 247.285 226.149 247.28 226.154C247.275 226.159 247.27 226.165 247.265 226.17L216.065 257.37C209.653 263.781 199.223 263.779 192.813 257.37C189.708 254.265 187.998 250.136 187.998 245.744C187.998 241.352 189.708 237.223 192.814 234.118L246.666 180.264C249.662 177.269 252.992 174.634 256.571 172.427C265.074 167.171 274.895 164.393 284.972 164.393C292.665 164.393 300.411 166.063 307.375 169.224C323.217 176.412 342.046 173.063 354.226 160.886L365.609 149.505L432.538 216.434L408.137 240.834ZM454.172 214.944L366.436 127.208L404.523 89.122L492.259 176.858L454.172 214.944Z" fill="white"/>
<path d="M462.41 191.287C466.926 191.287 470.587 187.626 470.587 183.11C470.587 178.594 466.926 174.933 462.41 174.933C457.894 174.933 454.233 178.594 454.233 183.11C454.233 187.626 457.894 191.287 462.41 191.287Z" fill="white"/>
<path d="M53.5669 199.366C58.0829 199.366 61.7439 195.705 61.7439 191.189C61.7439 186.673 58.0829 183.012 53.5669 183.012C49.0509 183.012 45.3899 186.673 45.3899 191.189C45.3899 195.705 49.0509 199.366 53.5669 199.366Z" fill="white"/>
</g>
<defs>
<clipPath id="clip0">
<rect width="512.003" height="512.003" fill="white"/>
</clipPath>
</defs>
</svg>
