<svg width="100" height="100" viewBox="0 0 100 100" fill="none" xmlns="http://www.w3.org/2000/svg">
<path d="M91.0068 90.9982C89.965 91.0036 88.9578 90.6279 88.1782 89.9432C80.2869 82.8342 65.9119 72.0506 54.3608 63.3862C53.7951 62.9623 53.7178 62.2048 54.1879 61.6953C54.4284 61.4476 54.7517 61.2953 55.0973 61.2668C55.4429 61.2383 55.7872 61.3356 56.0656 61.5405C67.6591 70.2366 82.0872 81.0578 90.0634 88.2448C90.3243 88.4793 90.6701 88.6055 91.0386 88.5965C91.3969 88.5916 91.7393 88.4494 91.9941 88.1997C92.4643 87.7338 92.4188 86.9718 91.8955 86.4984C83.9072 79.2918 71.9861 66.389 61.4695 55.0027L59.0428 52.3771L51.6854 61.0581C51.4018 62.2559 50.1885 67.2698 48.5459 72.6232C45.9494 81.0953 43.647 86.1497 41.5085 88.0765C39.6006 89.7974 36.5035 90.8269 32.7861 90.9787C32.0445 91.0087 31.4272 90.4962 31.3938 89.8334C31.3605 89.1722 31.9307 88.6085 32.6648 88.58C35.6708 88.4568 38.2067 87.6542 39.6233 86.3782C43.1192 83.228 47.4266 67.5223 48.9903 60.9334L37.3665 50.4608C30.0546 51.8706 12.6219 55.7512 9.12598 58.8999C7.7549 60.1368 6.89647 62.2454 6.70536 64.838C6.65683 65.4993 6.01528 65.9998 5.28727 65.9577C4.55168 65.9141 3.99658 65.3415 4.0436 64.6802C4.27717 61.506 5.41316 58.8488 7.24227 57.2015C9.38078 55.2748 14.991 53.2007 24.3928 50.8591C28.4727 49.8446 32.3736 49.0105 34.8488 48.5055C34.0975 47.9016 33.3548 47.2874 32.6208 46.6629C32.3668 46.4534 32.1611 46.1923 32.0177 45.8972C31.8744 45.6021 31.7966 45.28 31.7897 44.9526C31.7867 44.6253 31.8549 44.3012 31.9896 44.0024C32.1244 43.7037 32.3226 43.4372 32.5708 43.2212L34.4484 41.5319L13.036 22.2386C8.19171 17.874 4.3075 11.0356 4.1437 10.7456C4.01693 10.5207 3.97215 10.2595 4.01689 10.0057C4.06164 9.752 4.19318 9.52127 4.3894 9.35235C4.59802 9.1711 4.85523 9.05374 5.12984 9.01452C5.40445 8.97531 5.68464 9.01591 5.93641 9.13141C6.25795 9.2772 13.8474 12.7776 18.6917 17.1421L25.5516 23.3222C25.6741 23.4279 25.7723 23.5583 25.8397 23.7048C25.907 23.8513 25.9418 24.0104 25.9418 24.1714C25.9418 24.3323 25.907 24.4914 25.8397 24.6379C25.7723 24.7844 25.6741 24.9149 25.5516 25.0205C25.2908 25.2477 24.9554 25.373 24.6082 25.373C24.261 25.373 23.9256 25.2477 23.6648 25.0205L17.7498 19.6911L15.8646 21.3894L36.3336 39.832L38.2189 38.1337L27.3595 28.3495C27.2369 28.2439 27.1387 28.1134 27.0714 27.9669C27.0041 27.8204 26.9692 27.6613 26.9692 27.5004C26.9692 27.3394 27.0041 27.1803 27.0714 27.0339C27.1387 26.8874 27.2369 26.7569 27.3595 26.6512C27.6201 26.4244 27.9552 26.2994 28.3021 26.2994C28.649 26.2994 28.984 26.4244 29.2447 26.6512L40.1041 36.4354L41.9802 34.7446C42.4929 34.2832 43.1784 34.0337 43.9018 34.0412C44.6268 34.0502 45.3002 34.3162 45.7992 34.7897C46.9367 35.8718 48.3624 37.2996 50.1415 39.1482L55.0707 35.7576C56.7906 34.2636 82.1858 12.2801 90.6049 9.38241C92.2687 8.81129 93.5199 8.88794 94.3253 9.61386C95.1291 10.3398 95.2156 11.467 94.5801 12.9654C93.2863 16.0164 88.4891 21.8313 80.3218 30.2463C80.0758 30.4884 79.7493 30.6336 79.4032 30.6546C79.0571 30.6756 78.7151 30.5711 78.4411 30.3605C78.3109 30.264 78.2031 30.141 78.125 29.9997C78.0468 29.8584 78.0001 29.7022 77.9881 29.5416C77.976 29.3809 77.9988 29.2195 78.055 29.0684C78.1112 28.9172 78.1994 28.7797 78.3137 28.6652C88.2297 18.4497 91.2783 14.0235 92.0897 12.1072C92.2216 11.7961 92.2853 11.5752 92.3142 11.4249C92.1473 11.4505 91.9016 11.5076 91.5558 11.6263C89.2717 12.4123 83.8966 15.4678 71.2612 25.5616C66.7261 29.1947 62.2538 32.904 57.8462 36.6879L64.2754 42.4817C67.8245 39.125 71.3248 35.718 74.7753 32.2617C75.0245 32.0223 75.3531 31.881 75.6997 31.8641C76.0464 31.8472 76.3874 31.956 76.659 32.17C76.7873 32.2686 76.8929 32.3932 76.9686 32.5355C77.0442 32.6778 77.0883 32.8346 77.0978 32.9951C77.1073 33.1557 77.0819 33.3165 77.0235 33.4666C76.9651 33.6167 76.875 33.7526 76.7591 33.8653C73.0016 37.6308 69.1841 41.337 65.3082 44.9826L60.7021 50.4188L63.5185 53.4652C73.9988 64.8124 85.8789 77.6701 93.7823 84.8016C95.3202 86.1888 95.4021 88.3891 93.9704 89.8124C93.5802 90.1948 93.1174 90.4966 92.6087 90.7004C92.0999 90.9043 91.5555 91.006 91.0068 90.9997V90.9982ZM39.819 49.2735L50.3083 58.724L62.5281 44.3048L55.8229 38.263L39.819 49.2735V49.2735ZM37.2558 42.3991L34.4575 44.921C35.5519 45.8487 36.6627 46.7572 37.7896 47.6458L48.0181 40.6091C46.6634 39.1917 45.2789 37.8027 43.8654 36.4429L41.0823 38.9498L41.0475 38.9829C41.0355 38.9936 41.0234 39.0042 41.0111 39.0144L37.2952 42.3615C37.2892 42.3681 37.2832 42.3746 37.277 42.381L37.2558 42.3991ZM8.93336 13.4464C10.2635 15.3746 12.0425 17.7177 14.0036 19.6685L15.8388 18.0153C13.676 16.2463 11.0749 14.6427 8.93488 13.4449L8.93336 13.4464ZM27.3549 90.5924C27.2679 90.5921 27.1811 90.584 27.0956 90.5684C21.6461 89.5975 16.4273 87.0635 12.3975 83.4324C8.14772 79.6044 5.28424 74.6462 4.33177 69.4701C4.21043 68.8148 4.70335 68.1971 5.42832 68.0874C6.15633 67.9791 6.84187 68.4225 6.96168 69.0763C7.16037 70.1554 7.45157 71.224 7.82771 72.2731L17.9894 66.9181C18.6264 66.5829 19.4424 66.7753 19.814 67.3479C20.1856 67.9205 19.9717 68.6555 19.3362 68.9906L8.79534 74.5455C10.0997 77.1907 11.9652 79.6465 14.2827 81.7341C15.2063 82.5667 16.1982 83.3362 17.2447 84.0336L25.0814 75.6877C25.3235 75.4414 25.6479 75.2911 25.9938 75.2648C26.3397 75.2385 26.6835 75.3381 26.9606 75.545C27.0925 75.6393 27.2025 75.7605 27.2832 75.9005C27.3638 76.0405 27.4132 76.1961 27.428 76.3566C27.4428 76.5172 27.4227 76.679 27.369 76.8312C27.3153 76.9833 27.2293 77.1223 27.1168 77.2388L19.4788 85.3742C21.0314 86.2075 22.6613 86.8909 24.3458 87.4152L28.3802 81.9535C28.7882 81.4004 29.6148 81.2516 30.2275 81.6184C30.8417 81.9866 31.0071 82.7305 30.5991 83.2836L27.0394 88.1036C27.2305 88.1426 27.4216 88.1787 27.6127 88.2118C28.3347 88.341 28.8049 88.9723 28.6623 89.6245C28.5364 90.1957 27.9798 90.5924 27.3549 90.5924V90.5924Z" fill="#2F69FF"/>
</svg>
