<svg width="100" height="100" viewBox="0 0 100 100" fill="none" xmlns="http://www.w3.org/2000/svg">
<g clip-path="url(#clip0)">
<path d="M97.8515 51.0096L94.8523 46.5107C94.7974 46.4286 94.7268 46.358 94.6447 46.3031C94.5625 46.2482 94.4703 46.2101 94.3734 46.1909L72.2917 41.85C70.6865 40.699 56.9934 31.1804 43.2404 31.1804C30.2197 31.1804 22.2513 33.6304 20.7414 34.1378L16.484 32.7188C16.3906 32.6875 16.292 32.675 16.1938 32.6818C16.0956 32.6887 15.9997 32.7149 15.9116 32.7589C15.8235 32.803 15.745 32.8639 15.6805 32.9383C15.616 33.0128 15.5668 33.0992 15.5358 33.1926C15.5046 33.286 15.492 33.3846 15.4989 33.4828C15.5058 33.581 15.532 33.6768 15.576 33.7649C15.62 33.853 15.6809 33.9315 15.7553 33.996C15.8297 34.0605 15.916 34.1097 16.0094 34.1408L20.5081 35.6406C20.6685 35.6936 20.842 35.6915 21.0011 35.6348C21.083 35.6048 29.3143 32.6802 43.2401 32.6802C57.0691 32.6802 71.3992 43.054 71.5413 43.1588C71.6303 43.2236 71.7323 43.2683 71.8402 43.2899L93.7769 47.6027L96.4773 51.6529V59.6738C96.4773 59.6796 96.467 60.2595 95.5796 60.4382C94.4345 60.6668 89.2604 61.0214 86.6844 61.1751C86.5862 61.1809 86.4901 61.2061 86.4017 61.249C86.3132 61.292 86.2341 61.352 86.1688 61.4256C86.1035 61.4991 86.0533 61.5848 86.0212 61.6778C85.9891 61.7707 85.9756 61.8691 85.9814 61.9673C85.9927 62.1582 86.0764 62.3376 86.2155 62.4688C86.3546 62.6 86.5385 62.6732 86.7297 62.6734C86.7444 62.6734 86.759 62.6734 86.7755 62.6715C87.0828 62.6526 94.3424 62.2161 95.8758 61.9084C97.538 61.5747 97.9773 60.3004 97.9773 59.6736V51.4257C97.9773 51.2776 97.9335 51.1328 97.8513 51.0096H97.8515ZM16.943 36.1514C16.7892 35.7655 16.3499 35.5787 15.9684 35.7332C8.41381 38.7552 3.90763 43.2094 3.71938 43.3977C3.64971 43.4673 3.59444 43.5499 3.55674 43.6409C3.51903 43.7319 3.49963 43.8294 3.49963 43.9279V48.2496L2.07912 51.0906C2.02712 51.1948 2.00003 51.3096 2 51.426V58.9242C2 59.1263 2.09225 60.1853 3.91494 61.0947C5.48338 61.8765 11.0272 62.5885 11.6548 62.6676C11.6863 62.6704 11.7178 62.6734 11.7485 62.6734C11.931 62.6731 12.107 62.6063 12.2438 62.4855C12.3806 62.3648 12.4687 62.1984 12.4918 62.0174C12.504 61.9196 12.4969 61.8204 12.4708 61.7254C12.4447 61.6304 12.4002 61.5415 12.3397 61.4637C12.2793 61.3859 12.2041 61.3208 12.1185 61.2721C12.0329 61.2234 11.9385 61.192 11.8408 61.1798C10.2078 60.9749 5.72056 60.3199 4.58412 59.7533C3.64025 59.2819 3.50338 58.8775 3.49963 58.9185V51.6034L4.92031 48.7622C4.97217 48.658 4.99919 48.5432 4.99925 48.4268V44.2493C5.97763 43.3407 10.1639 39.6705 16.5249 37.126C16.7095 37.0522 16.8573 36.908 16.9358 36.7253C17.0142 36.5425 17.0168 36.3361 16.943 36.1514V36.1514ZM68.7342 61.1738H29.7434C29.645 61.1737 29.5474 61.1931 29.4565 61.2307C29.3655 61.2683 29.2828 61.3236 29.2131 61.3932C29.1435 61.4628 29.0883 61.5455 29.0506 61.6365C29.0129 61.7274 28.9936 61.825 28.9936 61.9234C28.9936 62.338 29.3291 62.6734 29.7434 62.6734H68.7342C68.8327 62.6735 68.9303 62.6541 69.0213 62.6164C69.1123 62.5788 69.195 62.5235 69.2646 62.4539C69.3343 62.3842 69.3895 62.3015 69.4271 62.2105C69.4648 62.1195 69.4841 62.0219 69.4841 61.9234C69.4841 61.825 69.4648 61.7274 69.4271 61.6365C69.3894 61.5455 69.3342 61.4628 69.2645 61.3932C69.1949 61.3236 69.1122 61.2683 69.0212 61.2307C68.9302 61.1931 68.8327 61.1737 68.7342 61.1738V61.1738Z" fill="#0D6EFD"/>
<path d="M50.7384 46.1774H47.7391C47.6406 46.1773 47.5431 46.1967 47.4521 46.2343C47.3611 46.272 47.2784 46.3273 47.2088 46.3969C47.1391 46.4666 47.0839 46.5493 47.0462 46.6403C47.0086 46.7313 46.9892 46.8289 46.9893 46.9274C46.9893 47.0258 47.0087 47.1233 47.0463 47.2143C47.084 47.3053 47.1392 47.3879 47.2089 47.4575C47.2785 47.5272 47.3612 47.5824 47.4522 47.62C47.5432 47.6577 47.6407 47.677 47.7391 47.677H50.7384C50.8369 47.6771 50.9344 47.6577 51.0254 47.6201C51.1164 47.5824 51.1991 47.5272 51.2687 47.4575C51.3384 47.3879 51.3936 47.3052 51.4313 47.2142C51.4689 47.1232 51.4883 47.0257 51.4882 46.9272C51.4882 46.5128 51.1529 46.1774 50.7384 46.1774V46.1774ZM34.2425 46.1774H31.2433C31.1448 46.1773 31.0472 46.1967 30.9562 46.2343C30.8652 46.272 30.7825 46.3273 30.7129 46.3969C30.6432 46.4666 30.588 46.5493 30.5504 46.6403C30.5127 46.7313 30.4934 46.8289 30.4934 46.9274C30.4934 47.0258 30.5128 47.1233 30.5505 47.2143C30.5881 47.3053 30.6434 47.3879 30.713 47.4575C30.7826 47.5272 30.8653 47.5824 30.9563 47.62C31.0473 47.6577 31.1448 47.677 31.2433 47.677H34.2425C34.341 47.677 34.4385 47.6577 34.5295 47.62C34.6205 47.5823 34.7032 47.5271 34.7728 47.4575C34.8424 47.3878 34.8977 47.3052 34.9353 47.2142C34.973 47.1232 34.9924 47.0256 34.9923 46.9272C34.9923 46.5128 34.6569 46.1774 34.2425 46.1774V46.1774ZM68.7342 41.6785H32.7429C25.8209 41.6785 23.0302 36.3205 22.9152 36.0929C22.8261 35.9151 22.67 35.7799 22.4812 35.7172C22.2925 35.6545 22.0866 35.6694 21.9088 35.7585C21.7309 35.8477 21.5958 36.0038 21.5331 36.1926C21.4704 36.3813 21.4853 36.5872 21.5744 36.765C21.7055 37.0272 24.8718 43.1781 32.7427 43.1781H68.7342C68.8327 43.1782 68.9302 43.1588 69.0212 43.1212C69.1122 43.0836 69.1949 43.0283 69.2645 42.9587C69.3342 42.8891 69.3894 42.8064 69.4271 42.7155C69.4648 42.6245 69.4841 42.527 69.4841 42.4285C69.4841 42.0139 69.1488 41.6785 68.7342 41.6785V41.6785ZM16.2466 32.6805C16.1481 32.6805 16.0506 32.6998 15.9596 32.7375C15.8686 32.7751 15.7859 32.8303 15.7162 32.9C15.6465 32.9696 15.5913 33.0523 15.5536 33.1433C15.5159 33.2343 15.4966 33.3319 15.4966 33.4304V34.93C15.4966 35.0285 15.5159 35.126 15.5536 35.2171C15.5912 35.3081 15.6465 35.3908 15.7161 35.4604C15.7858 35.5301 15.8685 35.5853 15.9595 35.6229C16.0506 35.6606 16.1481 35.6799 16.2466 35.6798C16.661 35.6798 16.9966 35.3444 16.9964 34.93V33.4304C16.9965 33.3319 16.9771 33.2343 16.9394 33.1433C16.9018 33.0523 16.8465 32.9696 16.7769 32.9C16.7072 32.8303 16.6245 32.7751 16.5335 32.7375C16.4425 32.6998 16.3449 32.6805 16.2464 32.6805H16.2466ZM7.24887 53.6755H2.74981C2.65133 53.6754 2.55381 53.6948 2.46281 53.7325C2.37182 53.7701 2.28914 53.8253 2.21951 53.895C2.14987 53.9646 2.09464 54.0473 2.05698 54.1383C2.01931 54.2293 1.99995 54.3268 2 54.4253C1.99995 54.5238 2.01931 54.6213 2.05698 54.7123C2.09464 54.8033 2.14987 54.886 2.21951 54.9556C2.28914 55.0252 2.37182 55.0805 2.46281 55.1181C2.55381 55.1558 2.65133 55.1752 2.74981 55.1751H7.24887C7.34736 55.1752 7.44488 55.1558 7.53587 55.1181C7.62687 55.0805 7.70955 55.0252 7.77918 54.9556C7.84882 54.886 7.90405 54.8033 7.94171 54.7123C7.97938 54.6213 7.99874 54.5238 7.99869 54.4253C7.99874 54.3268 7.97938 54.2293 7.94171 54.1383C7.90405 54.0473 7.84882 53.9646 7.77918 53.895C7.70955 53.8253 7.62687 53.7701 7.53587 53.7325C7.44488 53.6948 7.34736 53.6754 7.24887 53.6755V53.6755ZM12.4438 45.1491C12.29 44.764 11.8509 44.5767 11.4693 44.7312L3.97119 47.7304C3.80949 47.7952 3.67538 47.9143 3.5919 48.0672C3.50841 48.2201 3.48075 48.3972 3.51366 48.5683C3.54658 48.7394 3.63801 48.8936 3.77227 49.0046C3.90653 49.1156 4.07524 49.1764 4.24944 49.1766C4.34244 49.1766 4.43694 49.1597 4.52769 49.123L12.0256 46.1237C12.2103 46.0499 12.3581 45.9058 12.4365 45.723C12.5149 45.5402 12.5175 45.3338 12.4438 45.1491V45.1491Z" fill="#0D6EFD"/>
<path d="M11.895 44.6924L4.39668 43.1927C4.3001 43.1729 4.20055 43.1725 4.10378 43.1913C4.00701 43.2102 3.91495 43.2481 3.8329 43.3028C3.75085 43.3574 3.68046 43.4278 3.62577 43.5099C3.57109 43.5919 3.53321 43.684 3.51431 43.7807C3.47533 43.9757 3.51538 44.1782 3.62564 44.3437C3.7359 44.5091 3.90735 44.624 4.10231 44.6631L11.6006 46.1627C11.7947 46.1996 11.9956 46.1584 12.1595 46.048C12.3233 45.9377 12.437 45.7671 12.4758 45.5733C12.5146 45.3796 12.4754 45.1783 12.3666 45.0134C12.2578 44.8484 12.0884 44.7331 11.895 44.6924V44.6924ZM43.9755 40.7813L42.4759 33.283C42.3945 32.8767 42.0066 32.6086 41.5935 32.695C41.3985 32.7341 41.2271 32.849 41.1168 33.0145C41.0066 33.1799 40.9665 33.3824 41.0055 33.5774L42.5051 41.0757C42.5244 41.1722 42.5625 41.2641 42.6173 41.3459C42.6721 41.4277 42.7425 41.4979 42.8245 41.5525C42.9064 41.6072 42.9983 41.6451 43.0949 41.6641C43.1915 41.6832 43.2909 41.6831 43.3875 41.6637C43.5824 41.6246 43.7539 41.5097 43.8642 41.3442C43.9744 41.1788 44.0145 40.9763 43.9755 40.7813V40.7813ZM97.3506 50.6864L88.3528 49.1867C87.9484 49.1127 87.5589 49.3939 87.4901 49.8032C87.4739 49.9004 87.4769 49.9998 87.4991 50.0957C87.5213 50.1917 87.5622 50.2823 87.6195 50.3624C87.6767 50.4426 87.7492 50.5106 87.8328 50.5627C87.9164 50.6148 88.0094 50.6499 88.1066 50.6659L97.1044 52.1656C97.3005 52.1978 97.5013 52.151 97.663 52.0355C97.8247 51.9199 97.934 51.745 97.9671 51.5491C97.9833 51.4519 97.9803 51.3525 97.9581 51.2566C97.9359 51.1606 97.895 51.07 97.8377 50.9899C97.7804 50.9097 97.7079 50.8417 97.6244 50.7896C97.5408 50.7375 97.4477 50.7024 97.3506 50.6864V50.6864Z" fill="#0D6EFD"/>
<path d="M88.5649 49.2557L85.5657 47.7561C85.3877 47.668 85.1821 47.6537 84.9937 47.7165C84.8052 47.7793 84.6493 47.9141 84.5598 48.0914C84.4709 48.2693 84.4563 48.4752 84.5192 48.6638C84.5821 48.8525 84.7172 49.0084 84.895 49.0975L87.8943 50.5971C88.0722 50.6859 88.278 50.7004 88.4666 50.6375C88.6553 50.5747 88.8112 50.4396 88.9004 50.2619C88.9892 50.084 89.0038 49.8781 88.9409 49.6894C88.878 49.5007 88.7428 49.3448 88.5649 49.2557V49.2557Z" fill="#0D6EFD"/>
<path d="M92.2306 47.677H85.2303C85.1318 47.677 85.0343 47.6963 84.9433 47.734C84.8523 47.7716 84.7697 47.8269 84.7 47.8965C84.6304 47.9661 84.5752 48.0488 84.5375 48.1398C84.4998 48.2308 84.4805 48.3283 84.4805 48.4268C84.4805 48.5253 84.4998 48.6228 84.5375 48.7138C84.5752 48.8048 84.6304 48.8875 84.7 48.9571C84.7697 49.0268 84.8523 49.082 84.9433 49.1197C85.0343 49.1573 85.1318 49.1767 85.2303 49.1766H92.2306C92.3291 49.1767 92.4266 49.1573 92.5176 49.1197C92.6086 49.082 92.6913 49.0268 92.761 48.9571C92.8306 48.8875 92.8858 48.8048 92.9235 48.7138C92.9611 48.6228 92.9805 48.5253 92.9805 48.4268C92.9805 48.3283 92.9611 48.2308 92.9235 48.1398C92.8858 48.0488 92.8306 47.9661 92.761 47.8965C92.6913 47.8269 92.6086 47.7716 92.5176 47.734C92.4266 47.6963 92.3291 47.677 92.2306 47.677V47.677ZM77.7774 59.674H77.7613C77.3484 59.674 77.0203 60.0094 77.0203 60.4238C77.0203 60.8384 77.363 61.1738 77.7774 61.1738C77.9762 61.1737 78.1669 61.0946 78.3075 60.954C78.4481 60.8133 78.5271 60.6227 78.5272 60.4238C78.5271 60.225 78.448 60.0344 78.3074 59.8938C78.1668 59.7532 77.9762 59.6741 77.7774 59.674Z" fill="#0D6EFD"/>
<path d="M77.7321 52.1761C73.1848 52.1761 69.4841 55.8752 69.4841 60.424C69.4841 64.9727 73.1848 68.6721 77.7321 68.6721C82.2793 68.6721 85.9802 64.9727 85.9802 60.424C85.9802 55.8752 82.2793 52.1761 77.7321 52.1761ZM77.7321 67.1723C74.0109 67.1723 70.9838 64.1453 70.9838 60.4238C70.9838 56.7027 74.0107 53.6755 77.7321 53.6755C81.4536 53.6755 84.4806 56.7027 84.4806 60.4238C84.4806 64.1451 81.4536 67.1723 77.7321 67.1723Z" fill="#0D6EFD"/>
<path d="M77.732 55.1751C77.6335 55.1751 77.536 55.1944 77.445 55.2321C77.354 55.2697 77.2714 55.325 77.2017 55.3946C77.1321 55.4642 77.0769 55.5469 77.0392 55.6379C77.0015 55.7289 76.9822 55.8264 76.9822 55.9249V57.4245C76.9822 57.523 77.0015 57.6206 77.0392 57.7115C77.0769 57.8025 77.1321 57.8852 77.2017 57.9549C77.2714 58.0245 77.354 58.0797 77.445 58.1174C77.536 58.155 77.6335 58.1744 77.732 58.1744C78.1466 58.1744 78.482 57.8391 78.482 57.4245V55.9249C78.4821 55.8264 78.4627 55.7289 78.425 55.6379C78.3874 55.5469 78.3321 55.4642 78.2625 55.3945C78.1928 55.3249 78.1101 55.2697 78.0191 55.232C77.9281 55.1944 77.8305 55.175 77.732 55.1751V55.1751ZM77.732 62.6734C77.6336 62.6734 77.536 62.6927 77.445 62.7303C77.354 62.768 77.2714 62.8232 77.2017 62.8928C77.1321 62.9624 77.0769 63.0451 77.0392 63.1361C77.0015 63.2271 76.9822 63.3246 76.9822 63.4231V64.9227C76.9822 65.3372 77.3176 65.6727 77.732 65.6727C78.1466 65.6727 78.482 65.3372 78.482 64.9227V63.4231C78.482 63.3246 78.4627 63.227 78.425 63.1361C78.3873 63.0451 78.332 62.9624 78.2624 62.8928C78.1927 62.8232 78.11 62.768 78.019 62.7303C77.928 62.6927 77.8305 62.6734 77.732 62.6734V62.6734ZM74.7328 59.674H73.2331C73.1347 59.6739 73.0371 59.6933 72.9461 59.731C72.8552 59.7686 72.7725 59.8239 72.7028 59.8935C72.6332 59.9631 72.578 60.0458 72.5403 60.1368C72.5026 60.2278 72.4833 60.3253 72.4833 60.4238C72.4833 60.8384 72.8188 61.1738 73.2331 61.1738H74.7328C74.8313 61.1738 74.9288 61.1545 75.0198 61.1168C75.1108 61.0791 75.1935 61.0239 75.2631 60.9542C75.3328 60.8846 75.388 60.8019 75.4257 60.7109C75.4633 60.6198 75.4827 60.5223 75.4826 60.4238C75.4826 60.3253 75.4633 60.2278 75.4256 60.1368C75.3879 60.0458 75.3327 59.9631 75.2631 59.8935C75.1934 59.8239 75.1108 59.7686 75.0198 59.731C74.9288 59.6933 74.8313 59.6739 74.7328 59.674V59.674ZM82.2309 59.674H80.7313C80.6328 59.6739 80.5353 59.6933 80.4443 59.731C80.3533 59.7686 80.2707 59.8239 80.201 59.8935C80.1314 59.9631 80.0762 60.0458 80.0386 60.1368C80.0009 60.2278 79.9816 60.3253 79.9817 60.4238C79.9817 60.8384 80.3169 61.1738 80.7313 61.1738H82.2309C82.6455 61.1738 82.9809 60.8384 82.9809 60.4238C82.981 60.3253 82.9616 60.2278 82.9239 60.1368C82.8862 60.0458 82.831 59.9631 82.7613 59.8934C82.6917 59.8238 82.609 59.7686 82.518 59.7309C82.4269 59.6933 82.3294 59.6739 82.2309 59.674V59.674ZM76.1415 57.7733L75.0813 56.713C75.0117 56.6434 74.9291 56.5881 74.8381 56.5505C74.7471 56.5128 74.6496 56.4934 74.5512 56.4934C74.4527 56.4934 74.3552 56.5128 74.2643 56.5505C74.1733 56.5881 74.0906 56.6434 74.021 56.713C73.9514 56.7826 73.8962 56.8653 73.8585 56.9562C73.8208 57.0472 73.8014 57.1447 73.8014 57.2431C73.8014 57.3416 73.8208 57.4391 73.8585 57.5301C73.8962 57.621 73.9514 57.7037 74.021 57.7733L75.0813 58.8334C75.1509 58.9032 75.2335 58.9585 75.3244 58.9962C75.4154 59.0339 75.5129 59.0533 75.6114 59.0532C75.7597 59.0533 75.9048 59.0094 76.0282 58.927C76.1515 58.8447 76.2477 58.7275 76.3044 58.5905C76.3612 58.4534 76.376 58.3026 76.347 58.1572C76.318 58.0117 76.2465 57.8781 76.1415 57.7733V57.7733ZM81.4432 63.0747L80.3829 62.0144C80.3133 61.9447 80.2306 61.8895 80.1397 61.8518C80.0487 61.8142 79.9512 61.7948 79.8527 61.7948C79.7543 61.7948 79.6568 61.8142 79.5658 61.8518C79.4749 61.8895 79.3922 61.9447 79.3226 62.0144C79.253 62.084 79.1977 62.1666 79.1601 62.2576C79.1224 62.3486 79.103 62.4461 79.103 62.5445C79.103 62.643 79.1224 62.7405 79.1601 62.8314C79.1977 62.9224 79.253 63.0051 79.3226 63.0747L80.3829 64.135C80.4524 64.2047 80.5351 64.26 80.626 64.2977C80.717 64.3354 80.8145 64.3547 80.913 64.3546C81.0613 64.3546 81.2063 64.3107 81.3296 64.2283C81.453 64.146 81.5491 64.0289 81.6059 63.8918C81.6626 63.7548 81.6775 63.604 81.6485 63.4586C81.6196 63.3131 81.5481 63.1795 81.4432 63.0747V63.0747ZM76.1415 62.0144C76.0719 61.9447 75.9892 61.8895 75.8983 61.8518C75.8073 61.8141 75.7098 61.7947 75.6114 61.7947C75.5129 61.7947 75.4155 61.8141 75.3245 61.8518C75.2336 61.8895 75.1509 61.9447 75.0813 62.0144L74.021 63.0747C73.9514 63.1443 73.8962 63.227 73.8585 63.3179C73.8208 63.4089 73.8014 63.5064 73.8014 63.6048C73.8014 63.7033 73.8208 63.8008 73.8585 63.8918C73.8962 63.9827 73.9514 64.0654 74.021 64.135C74.0906 64.2046 74.1733 64.2598 74.2643 64.2975C74.3552 64.3352 74.4527 64.3546 74.5512 64.3546C74.6496 64.3546 74.7471 64.3352 74.8381 64.2975C74.9291 64.2598 75.0117 64.2046 75.0813 64.135L76.1415 63.0747C76.2111 63.0051 76.2663 62.9224 76.304 62.8314C76.3417 62.7405 76.3611 62.643 76.3611 62.5445C76.3611 62.4461 76.3417 62.3486 76.304 62.2576C76.2663 62.1666 76.2111 62.084 76.1415 62.0144ZM81.443 56.713C81.3734 56.6433 81.2908 56.5881 81.1998 56.5504C81.1088 56.5127 81.0113 56.4933 80.9129 56.4933C80.8144 56.4933 80.7169 56.5127 80.6259 56.5504C80.535 56.5881 80.4523 56.6433 80.3827 56.713L79.3224 57.7733C79.2174 57.8781 79.1459 58.0117 79.1169 58.1572C79.0878 58.3027 79.1027 58.4535 79.1595 58.5906C79.2162 58.7276 79.3124 58.8448 79.4358 58.9271C79.5592 59.0095 79.7043 59.0533 79.8526 59.0532C79.9511 59.0533 80.0486 59.0339 80.1396 58.9962C80.2306 58.9585 80.3132 58.9032 80.3827 58.8334L81.443 57.7733C81.5127 57.7037 81.5679 57.621 81.6056 57.5301C81.6433 57.4391 81.6627 57.3416 81.6627 57.2431C81.6627 57.1447 81.6433 57.0472 81.6056 56.9562C81.5679 56.8652 81.5127 56.7826 81.443 56.713V56.713ZM20.7903 59.674H20.7757C20.3613 59.674 20.0332 60.0094 20.0332 60.4238C20.0332 60.8384 20.3765 61.1738 20.7903 61.1738C20.8888 61.1738 20.9864 61.1545 21.0774 61.1168C21.1684 61.0791 21.2511 61.0239 21.3207 60.9542C21.3903 60.8846 21.4456 60.8019 21.4832 60.7109C21.5209 60.6198 21.5402 60.5223 21.5401 60.4238C21.5402 60.3253 21.5208 60.2278 21.4832 60.1368C21.4455 60.0458 21.3903 59.9631 21.3206 59.8935C21.251 59.8239 21.1683 59.7686 21.0773 59.731C20.9863 59.6933 20.8888 59.6739 20.7903 59.674V59.674Z" fill="#0D6EFD"/>
<path d="M20.7456 52.1761C16.1984 52.1761 12.499 55.8752 12.499 60.424C12.499 64.9727 16.1984 68.6721 20.7456 68.6721C25.2935 68.6721 28.9936 64.9727 28.9936 60.424C28.9936 55.8752 25.2936 52.1761 20.7456 52.1761ZM20.7456 67.1723C17.0253 67.1723 13.9988 64.1453 13.9988 60.4238C13.9988 56.7027 17.0251 53.6755 20.7456 53.6755C24.4668 53.6755 27.494 56.7027 27.494 60.4238C27.494 64.1451 24.467 67.1723 20.7458 67.1723H20.7456Z" fill="#0D6EFD"/>
<path d="M20.7457 55.1751C20.6472 55.1751 20.5497 55.1944 20.4587 55.2321C20.3677 55.2697 20.2851 55.325 20.2154 55.3946C20.1458 55.4642 20.0905 55.5469 20.0529 55.6379C20.0152 55.7289 19.9959 55.8264 19.9959 55.9249V57.4245C19.9959 57.523 20.0152 57.6206 20.0529 57.7115C20.0905 57.8025 20.1458 57.8852 20.2154 57.9549C20.2851 58.0245 20.3677 58.0797 20.4587 58.1174C20.5497 58.155 20.6472 58.1744 20.7457 58.1744C20.8442 58.1744 20.9417 58.155 21.0327 58.1174C21.1237 58.0797 21.2064 58.0245 21.276 57.9549C21.3457 57.8852 21.4009 57.8025 21.4386 57.7115C21.4762 57.6206 21.4956 57.523 21.4955 57.4245V55.9249C21.4956 55.8264 21.4762 55.7289 21.4386 55.6379C21.4009 55.5469 21.3457 55.4642 21.276 55.3946C21.2064 55.325 21.1237 55.2697 21.0327 55.2321C20.9417 55.1944 20.8442 55.1751 20.7457 55.1751V55.1751ZM20.7457 62.6734C20.6472 62.6734 20.5497 62.6927 20.4587 62.7303C20.3677 62.768 20.2851 62.8232 20.2154 62.8928C20.1458 62.9624 20.0906 63.0451 20.0529 63.1361C20.0152 63.2271 19.9959 63.3246 19.9959 63.4231V64.9227C19.9959 65.3372 20.3313 65.6727 20.7457 65.6727C20.8442 65.6727 20.9418 65.6534 21.0328 65.6157C21.1238 65.578 21.2065 65.5228 21.2761 65.4531C21.3457 65.3834 21.401 65.3007 21.4386 65.2097C21.4763 65.1187 21.4956 65.0212 21.4955 64.9227V63.4231C21.4956 63.3246 21.4762 63.2271 21.4386 63.1361C21.4009 63.0451 21.3457 62.9624 21.276 62.8928C21.2064 62.8232 21.1237 62.768 21.0327 62.7303C20.9417 62.6927 20.8442 62.6734 20.7457 62.6734V62.6734ZM17.7463 59.674H16.2482C16.1497 59.674 16.0522 59.6933 15.9612 59.731C15.8702 59.7687 15.7876 59.8239 15.718 59.8936C15.6484 59.9632 15.5931 60.0459 15.5555 60.1368C15.5178 60.2278 15.4985 60.3253 15.4985 60.4238C15.4985 60.8384 15.8338 61.1738 16.2483 61.1738H17.7465C17.845 61.1738 17.9425 61.1544 18.0335 61.1168C18.1245 61.0791 18.2072 61.0238 18.2768 60.9542C18.3464 60.8845 18.4017 60.8018 18.4393 60.7108C18.477 60.6198 18.4963 60.5223 18.4963 60.4238C18.4963 60.3253 18.477 60.2278 18.4393 60.1368C18.4016 60.0457 18.3464 59.9631 18.2767 59.8934C18.2071 59.8238 18.1244 59.7686 18.0333 59.7309C17.9423 59.6933 17.8448 59.6739 17.7463 59.674V59.674ZM25.2446 59.674H23.745C23.6465 59.6739 23.549 59.6933 23.458 59.731C23.367 59.7686 23.2843 59.8239 23.2147 59.8935C23.145 59.9631 23.0898 60.0458 23.0521 60.1368C23.0145 60.2278 22.9951 60.3253 22.9952 60.4238C22.9952 60.8384 23.3306 61.1738 23.745 61.1738H25.2446C25.3431 61.1738 25.4406 61.1545 25.5316 61.1168C25.6226 61.0791 25.7053 61.0239 25.775 60.9542C25.8446 60.8846 25.8998 60.8019 25.9375 60.7109C25.9751 60.6198 25.9945 60.5223 25.9944 60.4238C25.9945 60.3253 25.9751 60.2278 25.9374 60.1368C25.8998 60.0458 25.8445 59.9631 25.7749 59.8935C25.7053 59.8239 25.6226 59.7686 25.5316 59.731C25.4406 59.6933 25.3431 59.6739 25.2446 59.674V59.674ZM19.1552 57.7733L18.0948 56.713C18.0252 56.6434 17.9426 56.5881 17.8516 56.5505C17.7606 56.5128 17.6631 56.4934 17.5647 56.4934C17.4662 56.4934 17.3687 56.5128 17.2778 56.5505C17.1868 56.5881 17.1042 56.6434 17.0345 56.713C16.9649 56.7826 16.9097 56.8653 16.872 56.9562C16.8343 57.0472 16.8149 57.1447 16.8149 57.2431C16.8149 57.3416 16.8343 57.4391 16.872 57.5301C16.9097 57.621 16.9649 57.7037 17.0345 57.7733L18.0948 58.8334C18.1644 58.9032 18.2471 58.9585 18.338 58.9962C18.429 59.0339 18.5266 59.0533 18.6251 59.0532C18.7734 59.0533 18.9185 59.0094 19.0419 58.927C19.1652 58.8447 19.2614 58.7275 19.3181 58.5905C19.3749 58.4534 19.3897 58.3026 19.3607 58.1572C19.3317 58.0117 19.2602 57.8781 19.1552 57.7733ZM24.4565 63.0747L23.3962 62.0144C23.2556 61.8738 23.0649 61.7948 22.8661 61.7948C22.6672 61.7948 22.4765 61.8738 22.3359 62.0144C22.1953 62.155 22.1163 62.3457 22.1163 62.5445C22.1163 62.7434 22.1953 62.9341 22.3359 63.0747L23.3962 64.135C23.4658 64.2047 23.5484 64.26 23.6394 64.2977C23.7304 64.3354 23.828 64.3547 23.9265 64.3546C24.0748 64.3546 24.2197 64.3106 24.3431 64.2283C24.4664 64.1459 24.5625 64.0288 24.6192 63.8918C24.676 63.7547 24.6908 63.604 24.6618 63.4585C24.6329 63.3131 24.5614 63.1795 24.4565 63.0747V63.0747ZM19.1553 62.0144C19.0857 61.9447 19.0031 61.8895 18.9121 61.8518C18.8212 61.8141 18.7237 61.7947 18.6252 61.7947C18.5267 61.7947 18.4292 61.8141 18.3383 61.8518C18.2473 61.8895 18.1646 61.9447 18.095 62.0144L17.0347 63.0747C16.9651 63.1443 16.9099 63.227 16.8722 63.3179C16.8345 63.4089 16.8151 63.5064 16.8151 63.6048C16.8151 63.7033 16.8345 63.8008 16.8722 63.8918C16.9099 63.9827 16.9651 64.0654 17.0347 64.135C17.1043 64.2046 17.187 64.2598 17.278 64.2975C17.3689 64.3352 17.4664 64.3546 17.5649 64.3546C17.6633 64.3546 17.7608 64.3352 17.8518 64.2975C17.9428 64.2598 18.0254 64.2046 18.095 64.135L19.1553 63.0747C19.225 63.0051 19.2802 62.9224 19.3179 62.8314C19.3556 62.7405 19.375 62.643 19.375 62.5445C19.375 62.4461 19.3556 62.3486 19.3179 62.2576C19.2802 62.1666 19.225 62.084 19.1553 62.0144V62.0144ZM24.4567 56.713C24.3871 56.6433 24.3045 56.5881 24.2135 56.5504C24.1225 56.5127 24.025 56.4933 23.9266 56.4933C23.8281 56.4933 23.7306 56.5127 23.6396 56.5504C23.5487 56.5881 23.466 56.6433 23.3964 56.713L22.3361 57.7733C22.2311 57.8781 22.1596 58.0117 22.1306 58.1572C22.1015 58.3026 22.1164 58.4534 22.1731 58.5905C22.2299 58.7275 22.326 58.8447 22.4494 58.927C22.5728 59.0094 22.7178 59.0533 22.8662 59.0532C22.9647 59.0533 23.0622 59.0339 23.1532 58.9962C23.2442 58.9585 23.3269 58.9032 23.3964 58.8334L24.4567 57.7733C24.5264 57.7037 24.5816 57.621 24.6193 57.5301C24.657 57.4391 24.6764 57.3416 24.6764 57.2431C24.6764 57.1447 24.657 57.0472 24.6193 56.9562C24.5816 56.8652 24.5264 56.7826 24.4567 56.713V56.713Z" fill="#0D6EFD"/>
</g>
<defs>
<clipPath id="clip0">
<rect width="96" height="37.6875" fill="white" transform="translate(2 31)"/>
</clipPath>
</defs>
</svg>
