<svg width="100" height="100" viewBox="0 0 100 100" fill="none" xmlns="http://www.w3.org/2000/svg">
<mask id="mask0" mask-type="alpha" maskUnits="userSpaceOnUse" x="4" y="21" width="91" height="59">
<path d="M12.6952 73.7546H86.3048C87.8278 73.7546 89.0652 72.5184 89.0652 70.9988V23.7558C89.0652 22.2362 87.8278 21 86.3048 21H12.6952C11.173 21 9.9348 22.2362 9.9348 23.7558V70.9988C9.9348 72.5184 11.1738 73.7546 12.6952 73.7546ZM12.3008 23.7558C12.3008 23.5385 12.4775 23.3621 12.6952 23.3621H86.3048C86.5225 23.3621 86.6992 23.5385 86.6992 23.7558V70.9988C86.6992 71.2161 86.5225 71.3924 86.3048 71.3924H12.6952C12.4775 71.3924 12.3008 71.2161 12.3008 70.9988V23.7558ZM95 75.8632V78.0687C95 78.6529 94.5252 79.1269 93.94 79.1269H5.05998C4.47478 79.1269 4 78.6529 4 78.0687V75.8632H41.3731C41.5576 76.4781 42.1223 76.9293 42.7982 76.9293H56.2026C56.8777 76.9293 57.4424 76.4789 57.6277 75.8632H95Z" fill="black"/>
</mask>
<g mask="url(#mask0)">
<rect x="-5.44336" y="13.6887" width="111.604" height="88.4245" fill="#4378FF"/>
</g>
</svg>
