<svg width="360" height="400" viewBox="0 0 360 400" fill="none" xmlns="http://www.w3.org/2000/svg">
<path d="M179.592 225.052C63.7808 225.052 0 281.851 0 384.989C0 393.044 6.2973 399.572 14.0671 399.572H345.115C352.885 399.572 359.183 393.044 359.183 384.989C359.183 281.857 295.402 225.052 179.592 225.052ZM28.6461 370.405C34.1793 293.291 84.8912 254.221 179.592 254.221C274.292 254.221 325.005 293.291 330.542 370.405H28.6461V370.405Z" fill="#434343"/>
<path d="M179.588 0C126.39 0 86.2756 42.4213 86.2756 98.6721C86.2756 156.57 128.135 203.668 179.588 203.668C231.041 203.668 272.9 156.57 272.9 98.6768C272.9 42.4213 232.786 0 179.588 0ZM179.588 174.507C143.646 174.507 114.41 140.49 114.41 98.6768C114.41 58.3993 141.822 29.1653 179.588 29.1653C216.749 29.1653 244.766 59.0455 244.766 98.6768C244.766 140.49 215.53 174.507 179.588 174.507Z" fill="#434343"/>
</svg>
