<svg width="512" height="201" viewBox="0 0 512 201" fill="none" xmlns="http://www.w3.org/2000/svg">
<path d="M511.208 106.718L495.212 82.724C494.618 81.838 493.704 81.225 492.658 81.018L374.889 57.867C366.328 51.728 293.298 0.962036 219.949 0.962036C150.505 0.962036 108.007 14.029 99.9539 16.735L77.2479 9.16704C75.1349 8.47204 72.8859 9.60103 72.1909 11.694C71.4909 13.791 72.6239 16.056 74.7169 16.751L98.7109 24.75C99.5669 25.035 100.496 25.019 101.34 24.719C101.777 24.559 145.677 8.96103 219.948 8.96103C293.703 8.96103 370.13 64.288 370.888 64.847C371.365 65.194 371.912 65.433 372.482 65.546L489.478 88.548L503.88 110.149V152.927C503.88 152.958 503.825 156.051 499.092 157.004C492.985 158.223 465.39 160.114 451.651 160.934C449.448 161.067 447.769 162.957 447.902 165.159C448.027 167.284 449.791 168.925 451.893 168.925C451.971 168.925 452.049 168.925 452.137 168.915C453.776 168.814 492.494 166.486 500.672 164.845C509.537 163.065 511.88 156.269 511.88 152.926V108.937C511.88 108.148 511.646 107.374 511.208 106.718Z" fill="#0D6EFD"/>
<path d="M79.696 27.474C78.876 25.416 76.533 24.42 74.498 25.244C34.207 41.361 10.174 65.117 9.17 66.121C8.42 66.871 7.998 67.887 7.998 68.949V91.998L0.422 107.15C0.145 107.705 0 108.318 0 108.939V148.929C0 150.007 0.492001 155.655 10.213 160.505C18.578 164.675 48.145 168.472 51.492 168.894C51.66 168.909 51.828 168.925 51.992 168.925C53.98 168.925 55.702 167.441 55.956 165.426C56.229 163.231 54.675 161.231 52.484 160.959C43.775 159.866 19.843 156.373 13.782 153.351C8.748 150.837 8.018 148.68 7.998 148.899V109.885L15.575 94.732C15.851 94.177 15.996 93.564 15.996 92.943V70.663C21.214 65.817 43.541 46.243 77.466 32.672C79.516 31.852 80.516 29.524 79.696 27.474Z" fill="#0D6EFD"/>
<path d="M355.916 160.927H147.965C145.755 160.927 143.966 162.715 143.966 164.925C143.966 167.136 145.755 168.925 147.965 168.925H355.916C358.127 168.925 359.915 167.136 359.915 164.925C359.915 162.715 358.127 160.927 355.916 160.927Z" fill="#0D6EFD"/>
<path d="M259.938 80.946H243.942C241.732 80.946 239.943 82.7341 239.943 84.9451C239.943 87.1551 241.732 88.944 243.942 88.944H259.938C262.149 88.944 263.937 87.1551 263.937 84.9451C263.937 82.7341 262.149 80.946 259.938 80.946Z" fill="#0D6EFD"/>
<path d="M171.96 80.946H155.964C153.754 80.946 151.965 82.7341 151.965 84.9451C151.965 87.1551 153.754 88.944 155.964 88.944H171.96C174.17 88.944 175.959 87.1551 175.959 84.9451C175.959 82.7341 174.17 80.946 171.96 80.946Z" fill="#0D6EFD"/>
<path d="M355.916 56.952H163.962C127.045 56.952 112.161 28.376 111.548 27.162C110.548 25.194 108.162 24.393 106.178 25.389C104.209 26.381 103.413 28.775 104.397 30.747C105.096 32.145 121.983 64.95 163.961 64.95H355.916C358.127 64.95 359.915 63.161 359.915 60.952C359.915 58.741 358.127 56.952 355.916 56.952Z" fill="#0D6EFD"/>
<path d="M75.9819 8.96301C73.7709 8.96301 71.9829 10.752 71.9829 12.962V20.96C71.9829 23.171 73.7709 24.959 75.9819 24.959C78.1919 24.959 79.9819 23.17 79.9809 20.96V12.962C79.9809 10.752 78.1919 8.96301 75.9819 8.96301Z" fill="#0D6EFD"/>
<path d="M27.994 120.936H3.999C1.789 120.936 0 122.725 0 124.935C0 127.146 1.789 128.934 3.999 128.934H27.994C30.204 128.934 31.993 127.146 31.993 124.935C31.993 122.725 30.204 120.936 27.994 120.936Z" fill="#0D6EFD"/>
<path d="M55.7009 75.462C54.8809 73.408 52.5379 72.409 50.5029 73.233L10.5129 89.229C8.46293 90.049 7.46293 92.377 8.28293 94.427C8.90793 95.993 10.4119 96.942 11.9969 96.942C12.4929 96.942 12.9969 96.852 13.4809 96.656L53.4709 80.66C55.5209 79.84 56.5209 77.512 55.7009 75.462Z" fill="#0D6EFD"/>
<path d="M52.773 73.0261L12.782 65.0281C10.599 64.5831 8.50596 66.0001 8.07596 68.1641C7.64196 70.3311 9.04796 72.4361 11.212 72.8701L51.203 80.8681C51.469 80.9231 51.735 80.9461 51.992 80.9461C53.858 80.9461 55.53 79.6331 55.909 77.7321C56.342 75.5641 54.937 73.4591 52.773 73.0261Z" fill="#0D6EFD"/>
<path d="M223.869 52.167L215.871 12.176C215.437 10.009 213.368 8.579 211.165 9.04C209.001 9.474 207.595 11.579 208.029 13.746L216.027 53.737C216.406 55.639 218.077 56.951 219.944 56.951C220.202 56.951 220.468 56.928 220.733 56.873C222.896 56.439 224.303 54.334 223.869 52.167Z" fill="#0D6EFD"/>
<path d="M508.536 104.994L460.548 96.9961C458.391 96.6011 456.314 98.1011 455.947 100.284C455.58 102.464 457.056 104.522 459.235 104.885L507.223 112.883C507.442 112.922 507.668 112.938 507.887 112.938C509.801 112.938 511.496 111.548 511.824 109.595C512.191 107.415 510.715 105.357 508.536 104.994Z" fill="#0D6EFD"/>
<path d="M461.679 97.364L445.683 89.366C443.715 88.389 441.309 89.182 440.318 91.154C439.334 93.13 440.13 95.532 442.106 96.52L458.102 104.518C458.68 104.803 459.289 104.94 459.891 104.94C461.351 104.94 462.765 104.131 463.468 102.73C464.452 100.754 463.656 98.352 461.679 97.364Z" fill="#0D6EFD"/>
<path d="M481.23 88.944H443.895C441.684 88.944 439.896 90.733 439.896 92.943C439.896 95.153 441.684 96.942 443.895 96.942H481.23C483.44 96.942 485.229 95.153 485.229 92.943C485.229 90.733 483.44 88.944 481.23 88.944Z" fill="#0D6EFD"/>
<path d="M404.146 152.928H404.06C401.858 152.928 400.108 154.717 400.108 156.927C400.108 159.138 401.936 160.927 404.146 160.927C406.349 160.927 408.145 159.138 408.145 156.927C408.145 154.717 406.349 152.928 404.146 152.928Z" fill="#0D6EFD"/>
<path d="M403.904 112.939C379.652 112.939 359.915 132.668 359.915 156.928C359.915 181.188 379.652 200.918 403.904 200.918C428.156 200.918 447.894 181.188 447.894 156.928C447.894 132.668 428.156 112.939 403.904 112.939ZM403.904 192.919C384.058 192.919 367.913 176.775 367.913 156.927C367.913 137.081 384.057 120.936 403.904 120.936C423.752 120.936 439.896 137.081 439.896 156.927C439.896 176.774 423.752 192.919 403.904 192.919Z" fill="#0D6EFD"/>
<path d="M403.904 128.934C401.694 128.934 399.905 130.723 399.905 132.933V140.931C399.905 143.142 401.694 144.93 403.904 144.93C406.115 144.93 407.904 143.142 407.904 140.931V132.933C407.904 130.723 406.115 128.934 403.904 128.934Z" fill="#0D6EFD"/>
<path d="M403.904 168.925C401.694 168.925 399.905 170.713 399.905 172.923V180.921C399.905 183.132 401.694 184.921 403.904 184.921C406.115 184.921 407.904 183.132 407.904 180.921V172.923C407.904 170.713 406.115 168.925 403.904 168.925Z" fill="#0D6EFD"/>
<path d="M387.908 152.928H379.91C377.7 152.928 375.911 154.717 375.911 156.927C375.911 159.138 377.7 160.927 379.91 160.927H387.908C390.119 160.927 391.907 159.138 391.907 156.927C391.907 154.717 390.119 152.928 387.908 152.928Z" fill="#0D6EFD"/>
<path d="M427.898 152.928H419.9C417.69 152.928 415.902 154.717 415.902 156.927C415.902 159.138 417.69 160.927 419.9 160.927H427.898C430.109 160.927 431.898 159.138 431.898 156.927C431.898 154.717 430.109 152.928 427.898 152.928Z" fill="#0D6EFD"/>
<path d="M395.421 142.791L389.767 137.136C388.205 135.574 385.674 135.574 384.112 137.136C382.55 138.698 382.55 141.229 384.112 142.791L389.767 148.445C390.548 149.226 391.571 149.617 392.594 149.617C393.618 149.617 394.64 149.226 395.421 148.445C396.983 146.884 396.983 144.353 395.421 142.791Z" fill="#0D6EFD"/>
<path d="M423.697 171.065L418.042 165.41C416.48 163.848 413.949 163.848 412.387 165.41C410.825 166.972 410.825 169.503 412.387 171.065L418.042 176.72C418.823 177.501 419.846 177.891 420.869 177.891C421.892 177.891 422.916 177.502 423.697 176.72C425.259 175.158 425.259 172.627 423.697 171.065Z" fill="#0D6EFD"/>
<path d="M395.421 165.41C393.86 163.848 391.329 163.848 389.767 165.41L384.112 171.065C382.55 172.626 382.55 175.158 384.112 176.72C384.893 177.501 385.917 177.891 386.939 177.891C387.962 177.891 388.986 177.502 389.767 176.72L395.421 171.065C396.983 169.503 396.983 166.972 395.421 165.41Z" fill="#0D6EFD"/>
<path d="M423.696 137.136C422.134 135.574 419.603 135.574 418.041 137.136L412.386 142.791C410.824 144.353 410.824 146.883 412.386 148.445C413.167 149.226 414.191 149.617 415.214 149.617C416.237 149.617 417.26 149.226 418.041 148.445L423.696 142.791C425.258 141.229 425.258 138.698 423.696 137.136Z" fill="#0D6EFD"/>
<path d="M100.215 152.928H100.137C97.927 152.928 96.177 154.717 96.177 156.927C96.177 159.138 98.008 160.927 100.215 160.927C102.425 160.927 104.214 159.138 104.214 156.927C104.214 154.717 102.425 152.928 100.215 152.928Z" fill="#0D6EFD"/>
<path d="M99.9771 112.939C75.7251 112.939 55.9951 132.668 55.9951 156.928C55.9951 181.188 75.7251 200.918 99.9771 200.918C124.232 200.918 143.966 181.188 143.966 156.928C143.966 132.668 124.233 112.939 99.9771 112.939ZM99.9771 192.919C80.1351 192.919 63.9941 176.775 63.9941 156.927C63.9941 137.081 80.1341 120.936 99.9771 120.936C119.823 120.936 135.968 137.081 135.968 156.927C135.968 176.774 119.824 192.919 99.9771 192.919Z" fill="#0D6EFD"/>
<path d="M99.977 128.934C97.767 128.934 95.978 130.723 95.978 132.933V140.931C95.978 143.142 97.767 144.93 99.977 144.93C102.187 144.93 103.976 143.142 103.976 140.931V132.933C103.976 130.723 102.187 128.934 99.977 128.934Z" fill="#0D6EFD"/>
<path d="M99.977 168.925C97.767 168.925 95.978 170.713 95.978 172.923V180.921C95.978 183.132 97.767 184.921 99.977 184.921C102.187 184.921 103.976 183.132 103.976 180.921V172.923C103.976 170.713 102.187 168.925 99.977 168.925Z" fill="#0D6EFD"/>
<path d="M83.9809 152.928H75.9909C73.7799 152.928 71.9919 154.717 71.9919 156.927C71.9919 159.138 73.7799 160.927 75.9909 160.927H83.9809C86.1899 160.927 87.9799 159.138 87.9799 156.927C87.9799 154.717 86.1909 152.928 83.9809 152.928Z" fill="#0D6EFD"/>
<path d="M123.971 152.928H115.973C113.763 152.928 111.974 154.717 111.974 156.927C111.974 159.138 113.763 160.927 115.973 160.927H123.971C126.181 160.927 127.97 159.138 127.97 156.927C127.97 154.717 126.181 152.928 123.971 152.928Z" fill="#0D6EFD"/>
<path d="M91.494 142.791L85.839 137.136C84.277 135.574 81.746 135.574 80.184 137.136C78.622 138.698 78.622 141.229 80.184 142.791L85.839 148.445C86.62 149.226 87.644 149.617 88.667 149.617C89.69 149.617 90.713 149.226 91.494 148.445C93.056 146.884 93.056 144.353 91.494 142.791Z" fill="#0D6EFD"/>
<path d="M119.768 171.065L114.113 165.41C112.551 163.848 110.02 163.848 108.458 165.41C106.896 166.972 106.896 169.503 108.458 171.065L114.113 176.72C114.894 177.501 115.918 177.891 116.941 177.891C117.964 177.891 118.987 177.502 119.768 176.72C121.33 175.158 121.33 172.627 119.768 171.065Z" fill="#0D6EFD"/>
<path d="M91.4949 165.41C89.9329 163.848 87.4019 163.848 85.8399 165.41L80.1849 171.065C78.6229 172.626 78.6229 175.158 80.1849 176.72C80.9659 177.501 81.9889 177.891 83.0119 177.891C84.0349 177.891 85.0579 177.502 85.8399 176.72L91.4949 171.065C93.0569 169.503 93.0569 166.972 91.4949 165.41Z" fill="#0D6EFD"/>
<path d="M119.769 137.136C118.207 135.574 115.676 135.574 114.114 137.136L108.459 142.791C106.897 144.353 106.897 146.883 108.459 148.445C109.24 149.226 110.263 149.617 111.286 149.617C112.31 149.617 113.333 149.226 114.114 148.445L119.769 142.791C121.331 141.229 121.331 138.698 119.769 137.136Z" fill="#0D6EFD"/>
</svg>
