<svg width="60" height="56" viewBox="0 0 60 56" fill="none" xmlns="http://www.w3.org/2000/svg">
<path d="M57.3674 55.4482C56.6714 55.4482 55.9945 55.1942 55.5016 54.746C50.2994 50.0159 40.8208 42.8413 33.2045 37.0766C32.8315 36.7942 32.7808 36.2903 33.0914 35.9511C33.4016 35.6118 33.9558 35.5657 34.3292 35.8482C41.9729 41.6338 51.4857 48.8342 56.7447 53.6158C56.9165 53.7721 57.1456 53.8558 57.3878 53.8496C57.6305 53.8442 57.8546 53.7505 58.0189 53.5859C58.3278 53.2761 58.2984 52.7686 57.9533 52.4544C52.6863 47.659 44.8263 39.0732 37.8919 31.4981C37.3514 30.9077 36.8175 30.3245 36.292 29.7508L31.4409 35.5274C31.2537 36.3239 30.454 39.6599 29.3717 43.2217C27.6588 48.859 26.1408 52.2226 24.7311 53.5044C23.4728 54.6486 21.4303 55.3343 18.98 55.4352C18.491 55.4554 18.0841 55.114 18.0622 54.673C18.0403 54.2321 18.4155 53.8585 18.9004 53.8385C20.8822 53.7567 22.5544 53.2231 23.488 52.3741C25.7928 50.2784 28.6326 39.8278 29.6637 35.4443L22 28.4761C17.1788 29.4139 5.6847 31.9964 3.38079 34.0913C2.4763 34.9136 1.90908 36.3168 1.78368 38.0424C1.75181 38.4828 1.32933 38.8147 0.848716 38.7872C0.364238 38.7581 -0.00245954 38.3774 0.0296514 37.9369C0.183175 35.8246 0.931806 34.0574 2.13773 32.961C3.54733 31.6793 7.24653 30.2991 13.4464 28.7415C16.136 28.0658 18.7083 27.5114 20.3401 27.175C19.7747 26.7146 19.2889 26.3091 18.8711 25.9488C18.5243 25.6498 18.3297 25.2458 18.3234 24.8114C18.317 24.3763 18.4999 23.9672 18.8385 23.6594L20.0756 22.5346L5.95811 9.69819C2.76401 6.79381 0.202863 2.24352 0.0953969 2.05118C-0.0769945 1.74279 -0.0114834 1.36866 0.257475 1.124C0.526668 0.879451 0.938251 0.819885 1.27717 0.976633C1.48871 1.07435 6.4931 3.40309 9.68732 6.30737L14.2096 10.4192C14.5528 10.7313 14.5528 11.2373 14.2096 11.5493C13.8662 11.8612 13.3098 11.8615 12.9665 11.5493L9.06573 8.00283L7.82277 9.133L21.3189 21.4045L22.5619 20.2743L15.4017 13.7639C15.0584 13.4517 15.0584 12.9457 15.4017 12.6337C15.745 12.3216 16.3015 12.3216 16.6447 12.6337L23.8049 19.1441L25.0419 18.0194C25.3804 17.7117 25.8328 17.5455 26.3087 17.551C26.7868 17.5567 27.2312 17.7337 27.5602 18.0491C28.3098 18.7681 29.2495 19.7198 30.423 20.949L33.6727 18.6929C34.8069 17.6986 51.5508 3.0717 57.102 1.14425C58.1987 0.763515 59.0236 0.815302 59.5545 1.29791C60.0853 1.78052 60.1421 2.5308 59.7232 3.52777C58.8704 5.55815 55.7073 9.42678 50.3218 15.0264C50.0022 15.3586 49.4469 15.3924 49.0815 15.1018C48.7161 14.8112 48.6789 14.3063 48.9985 13.9741C55.5357 7.1771 57.5458 4.23159 58.0809 2.95736C58.168 2.75031 58.2096 2.60273 58.229 2.50278C58.1191 2.52046 57.9569 2.55829 57.729 2.63736C56.2233 3.16014 52.6796 5.19297 44.3477 11.9089C40.4447 15.0547 36.9113 18.0912 35.5029 19.3124L39.7419 23.1667C40.927 22.0368 43.6662 19.4029 46.6653 16.3666C46.9898 16.038 47.5455 16.0111 47.9066 16.3059C48.2677 16.6009 48.2976 17.1062 47.9732 17.4345C44.1838 21.271 40.8058 24.4697 40.4235 24.8308L37.3861 28.4477C37.9943 29.1115 38.6143 29.7886 39.243 30.4753C46.1537 38.0243 53.9864 46.5805 59.1972 51.3247C60.2109 52.2476 60.2654 53.7124 59.3214 54.6593C58.8307 55.1513 58.1594 55.4312 57.4308 55.4474C57.4097 55.448 57.3885 55.4482 57.3674 55.4482ZM23.6168 27.6855L30.5334 33.9745L38.5904 24.3801L34.1687 20.3597L23.6168 27.6855ZM21.9268 23.112L20.0819 24.7898C20.6636 25.2914 21.3854 25.887 22.2794 26.603L29.023 21.921C27.9006 20.7465 27.0012 19.8362 26.2845 19.1488L24.4497 20.8175C24.4422 20.8249 24.4343 20.8321 24.4266 20.8394C24.4188 20.8465 24.4108 20.8535 24.4027 20.8603L21.9538 23.0873C21.9494 23.0915 21.9449 23.0957 21.9405 23.0997C21.9358 23.104 21.9313 23.1079 21.9268 23.112ZM3.25282 3.84755C4.13013 5.13085 5.30288 6.68992 6.59564 7.98823L7.8066 6.88716C6.37872 5.7117 4.66418 4.64536 3.25282 3.84755ZM15.3993 55.1776C15.3428 55.1776 15.2854 55.1726 15.2279 55.1622C11.6353 54.5163 8.19357 52.8301 5.53657 50.4143C2.73541 47.8674 0.846841 44.5679 0.219036 41.1238C0.139696 40.6884 0.463618 40.2769 0.94247 40.2047C1.42132 40.1323 1.87381 40.427 1.95338 40.8624C2.08417 41.58 2.27566 42.291 2.52399 42.9885L9.22487 39.4258C9.64384 39.203 10.1822 39.3312 10.4274 39.7122C10.6724 40.0933 10.5313 40.5827 10.1124 40.8055L3.16188 44.501C4.02266 46.2604 5.25143 47.8946 6.77964 49.2841C7.38869 49.8379 8.04298 50.3495 8.73301 50.8142L13.9 45.2605C14.2132 44.9236 14.7678 44.8814 15.1386 45.1665C15.5091 45.4516 15.5555 45.9558 15.2419 46.2929L10.2059 51.706C11.227 52.259 12.3047 52.7157 13.4149 53.064L16.0747 49.4297C16.3437 49.0623 16.8893 48.9626 17.2934 49.2072C17.6975 49.4516 17.8072 49.9478 17.5382 50.3153L15.1912 53.5221C15.3168 53.5477 15.4428 53.5717 15.569 53.5944C16.0452 53.68 16.3549 54.1005 16.2607 54.5334C16.1778 54.9138 15.8106 55.1776 15.3993 55.1776Z" fill="#2F69FF"/>
</svg>
