<svg width="119" height="56" viewBox="0 0 119 56" fill="none" xmlns="http://www.w3.org/2000/svg">
<path d="M93.2168 35.4639C87.7488 35.4639 83.3 39.9052 83.3 45.3646C83.3 50.8238 87.7486 55.2654 93.2168 55.2654C98.6848 55.2654 103.134 50.824 103.134 45.3646C103.133 39.9055 98.6848 35.4639 93.2168 35.4639ZM93.2168 51.305C89.9364 51.305 87.2668 48.6397 87.2668 45.3646C87.2668 42.0895 89.9364 39.4242 93.2168 39.4242C96.4972 39.4242 99.1668 42.0895 99.1668 45.3646C99.1668 48.6397 96.4972 51.305 93.2168 51.305Z" fill="#4378FF"/>
<path d="M25.7832 35.4639C20.3152 35.4639 15.8665 39.9052 15.8665 45.3646C15.8665 50.8238 20.315 55.2654 25.7832 55.2654C31.2512 55.2654 35.7 50.824 35.7 45.3646C35.7 39.9055 31.2514 35.4639 25.7832 35.4639ZM25.7832 51.305C22.5028 51.305 19.8332 48.6397 19.8332 45.3646C19.8332 42.0895 22.5028 39.4242 25.7832 39.4242C29.0636 39.4242 31.7332 42.0895 31.7332 45.3646C31.7332 48.6397 29.0636 51.305 25.7832 51.305Z" fill="#4378FF"/>
<path d="M117.017 35.4639V23.5835C117.017 22.7301 116.471 21.9736 115.66 21.7044L104.468 17.98C100.254 10.8539 94.4602 4.07208 81.6577 1.83268C81.634 1.82873 81.6101 1.82479 81.5864 1.82084C57.9451 -1.44231 40.1941 3.88204 28.798 17.6514C15.6227 17.8415 1.98326 21.9896 1.98326 29.5237V35.4639C0.888549 35.4639 0 36.3509 0 37.4438V45.364C0 46.4569 0.888549 47.344 1.98326 47.344H9.91651C11.0112 47.344 11.8998 46.4569 11.8998 45.364C11.8998 37.7209 18.1275 31.5037 25.783 31.5037C33.4385 31.5037 39.6663 37.7211 39.6663 45.364C39.6663 46.4569 40.5548 47.344 41.6495 47.344H77.3495C78.4443 47.344 79.3328 46.4569 79.3328 45.364C79.3328 37.7209 85.5605 31.5037 93.2161 31.5037C100.872 31.5037 107.099 37.7211 107.099 45.364C107.099 46.4569 107.988 47.344 109.083 47.344H117.016C118.111 47.344 118.999 46.4569 118.999 45.364V37.4438C119 36.3509 118.111 35.4639 117.017 35.4639ZM91.3304 9.43797C94.7754 11.5467 97.342 14.3307 99.5691 17.6433H91.253L91.3304 9.43797ZM67.4333 4.8501C71.6757 4.79279 76.1877 5.07588 81.0093 5.74113C83.3972 6.16089 85.4955 6.757 87.3837 7.49743L87.2865 17.6452H67.4333V4.8501ZM63.4667 5.01857V17.6454H34.157C41.5092 10.0735 51.2037 5.88964 63.4667 5.01857ZM115.033 43.3843H110.958C109.968 34.4858 102.39 27.5437 93.2165 27.5437C84.0435 27.5437 76.4652 34.4858 75.4755 43.3843H43.5243C42.5346 34.4858 34.9563 27.5437 25.7833 27.5437C16.6103 27.5437 9.03192 34.4858 8.04226 43.3843H3.96674V39.4241C5.06145 39.4241 5.95 38.537 5.95 37.4441V31.5039H7.93326C9.02796 31.5039 9.91651 30.6168 9.91651 29.5239C9.91651 28.431 9.02796 27.5439 7.93326 27.5439H6.90595C9.58949 24.6353 17.7984 21.6037 29.75 21.6037H102.81L113.05 25.0115V27.5439H111.067C109.972 27.5439 109.084 28.431 109.084 29.5239C109.084 30.6168 109.972 31.5039 111.067 31.5039H113.05V37.4441C113.05 38.537 113.939 39.4241 115.033 39.4241V43.3843Z" fill="#4378FF"/>
</svg>
