<svg width="106" height="69" viewBox="0 0 106 69" fill="none" xmlns="http://www.w3.org/2000/svg">
<mask id="mask0" mask-type="alpha" maskUnits="userSpaceOnUse" x="0" y="0" width="106" height="69">
<path d="M10.1284 61.9669H95.8716C97.6455 61.9669 99.0869 60.5269 99.0869 58.7568V3.72658C99.0869 1.95644 97.6455 0.516479 95.8716 0.516479H10.1284C8.35539 0.516479 6.91306 1.95644 6.91306 3.72658V58.7568C6.91306 60.5269 8.35631 61.9669 10.1284 61.9669ZM9.6691 3.72658C9.6691 3.47344 9.87489 3.26799 10.1284 3.26799H95.8716C96.1251 3.26799 96.3309 3.47344 96.3309 3.72658V58.7568C96.3309 59.0099 96.1251 59.2154 95.8716 59.2154H10.1284C9.87489 59.2154 9.6691 59.0099 9.6691 58.7568V3.72658ZM106 64.4231V66.9921C106 67.6726 105.447 68.2247 104.765 68.2247H1.23471C0.553045 68.2247 0 67.6726 0 66.9921V64.4231H43.5335C43.7484 65.1394 44.4062 65.6649 45.1935 65.6649H60.8074C61.5938 65.6649 62.2516 65.1403 62.4674 64.4231H106Z" fill="black"/>
</mask>
<g mask="url(#mask0)">
<rect x="-11" y="-8" width="130" height="103" fill="#4378FF"/>
</g>
</svg>
