<svg width="76" height="80" viewBox="0 0 76 80" fill="none" xmlns="http://www.w3.org/2000/svg">
<mask id="mask0" mask-type="alpha" maskUnits="userSpaceOnUse" x="0" y="0" width="76" height="80">
<path d="M75.1875 35.3299L39.8504 1.26783C38.821 0.266028 37.1791 0.266028 36.1497 1.26783L0.813954 35.3286C0.293743 35.8298 0 36.5206 0 37.2424C0 38.7116 1.19295 39.9024 2.66433 39.9024H7.36022V77.1418C7.36022 78.6109 8.55301 79.8018 10.0245 79.8018H28.6749C30.1464 79.8018 31.3392 78.6109 31.3392 77.1418V55.8621H44.6609V77.1418C44.6609 78.6109 45.8537 79.8018 47.3252 79.8018H65.9755C67.4471 79.8018 68.6399 78.6109 68.6399 77.1418V39.9024H73.3357C74.0581 39.9024 74.7493 39.6096 75.2514 39.0911C76.274 38.0348 76.2454 36.3508 75.1875 35.3299ZM68.6399 37.2424C67.1683 37.2424 65.9755 38.4333 65.9755 39.9024V77.1418H47.3252V55.8621C47.3252 54.393 46.1324 53.2022 44.6609 53.2022H31.3392C29.8677 53.2022 28.6749 54.393 28.6749 55.8621V77.1418H10.0245V39.9024C10.0245 38.4333 8.83176 37.2424 7.36022 37.2424H2.66433L38 3.18167L73.3491 37.2424H68.6399Z" fill="black"/>
</mask>
<g mask="url(#mask0)">
<rect x="-14" y="-1" width="120" height="91" fill="#4378FF"/>
</g>
</svg>
